<svg width="20" height="20" viewBox="0 0 20 20" fill="none" xmlns="http://www.w3.org/2000/svg">
    <!-- social -->
    <symbol id="google" viewBox="0 0 20 20">
        <path opacity="0.01" d="M0 0H20V20H0" fill="currentColor" />
        <path d="M14.5833 11.6667C14.085 13.4002 12.6181 14.6813 10.8333 14.9417C9.45262 15.142 8.04991 14.7708 6.94905 13.9137C5.84819 13.0566 5.14435 11.7877 5 10.4001C4.88812 9.00615 5.36509 7.62909 6.31517 6.603C7.26525 5.57691 8.60161 4.99558 10 5.00006C10.6481 5.00098 11.2901 5.12542 11.8917 5.36673C12.088 5.45486 12.3191 5.37902 12.425 5.19173L13.625 2.9834C13.6772 2.88067 13.6863 2.76139 13.6503 2.65193C13.6143 2.54247 13.5363 2.45183 13.4333 2.40006C10.8137 1.21403 7.76776 1.46236 5.37488 3.05706C2.98199 4.65175 1.58034 7.36745 1.66667 10.2417C1.83685 14.5936 5.29276 18.1 9.64167 18.3334C14.2177 18.5363 18.0996 15.0079 18.3333 10.4334V8.76673C18.3289 8.53847 18.1449 8.3545 17.9167 8.35006H10.4167C10.1865 8.35006 10 8.53661 10 8.76673V11.2667C10 11.4969 10.1865 11.6834 10.4167 11.6834H14.5833" fill="currentColor"/>
    </symbol>
    <symbol id="linkedin" viewBox="0 0 24 24">
        <rect opacity="0.01" x="24" y="24" width="24" height="24" transform="rotate(180 24 24)" fill="currentColor"/>
        <path d="M15.15 8.39994C13.6021 8.39462 12.1155 9.00514 11.0182 10.0969C9.92079 11.1886 9.30265 12.672 9.3 14.2199V20.0999C9.3 20.3386 9.39482 20.5675 9.5636 20.7363C9.73239 20.9051 9.9613 20.9999 10.2 20.9999H12.3C12.7971 20.9999 13.2 20.597 13.2 20.0999V14.2199C13.1996 13.6686 13.4338 13.1432 13.8441 12.7749C14.2543 12.4066 14.8019 12.2303 15.35 12.2899C16.356 12.4166 17.1079 13.2761 17.1 14.2899V20.0999C17.1 20.597 17.5029 20.9999 18 20.9999H20.1C20.5971 20.9999 21 20.597 21 20.0999V14.2199C20.9974 12.672 20.3792 11.1886 19.2818 10.0969C18.1845 9.00514 16.6979 8.39462 15.15 8.39994Z" fill="currentColor"/>
        <rect x="3" y="9.30005" width="4.5" height="11.7" rx="0.9" fill="currentColor"/>
        <circle cx="5.25" cy="5.25" r="2.25" fill="currentColor"/>
    </symbol>
    <symbol id="twitter" viewBox="0 0 24 24">
        <path opacity="0.01" d="M0 0H24V24H0" fill="currentColor"/>
        <path d="M8.08 20C11.0674 20.1 13.9683 18.9876 16.1229 16.9159C18.2775 14.8441 19.5028 11.9891 19.52 9.00005C20.1977 8.16146 20.7008 7.19588 21 6.16005C21.0456 5.99287 20.9889 5.81449 20.855 5.70441C20.7212 5.59433 20.5352 5.57305 20.38 5.65005C19.653 5.99998 18.7839 5.84707 18.22 5.27005C17.5108 4.49338 16.5172 4.03701 15.466 4.00498C14.4147 3.97295 13.3952 4.36799 12.64 5.10005C11.599 6.10824 11.1625 7.58832 11.49 9.00005C8.14 9.20005 5.84 7.61005 4 5.43005C3.88705 5.30213 3.70915 5.25312 3.54663 5.30512C3.3841 5.35713 3.26771 5.50032 3.25 5.67005C2.53212 9.65221 4.36687 13.6607 7.85 15.72C6.70964 17.0279 5.10821 17.8447 3.38 18C3.19018 18.0315 3.04138 18.1802 3.00974 18.37C2.97811 18.5598 3.07065 18.7487 3.24 18.84C4.74352 19.5914 6.39923 19.9882 8.08 20Z" fill="currentColor"/>
    </symbol>
    <symbol id="facebook" viewBox="0 0 24 24">
        <rect opacity="0.01" x="24" y="24" width="24" height="24" transform="rotate(180 24 24)" fill="currentColor"/>
        <path d="M17 3.49991C17 3.22377 16.7761 2.99991 16.5 2.99991H14C11.3793 2.86936 9.14528 4.88 9 7.49991V10.1999H6.5C6.22386 10.1999 6 10.4238 6 10.6999V13.2999C6 13.5761 6.22386 13.7999 6.5 13.7999H9V20.4999C9 20.7761 9.22386 20.9999 9.5 20.9999H12.5C12.7761 20.9999 13 20.7761 13 20.4999V13.7999H15.62C15.8487 13.8032 16.0505 13.6508 16.11 13.4299L16.83 10.8299C16.8703 10.6802 16.8389 10.5202 16.7449 10.3969C16.6509 10.2735 16.5051 10.2008 16.35 10.1999H13V7.49991C13.0515 6.98701 13.4845 6.59733 14 6.59991H16.5C16.7761 6.59991 17 6.37605 17 6.09991V3.49991Z" fill="currentColor"/>
    </symbol>

    <!-- icons -->
    <symbol id="arrow-right" viewBox="0 0 18 18">
        <rect opacity="0.01" y="18" width="18" height="18" transform="rotate(-90 0 18)" fill="currentColor"/>
        <path d="M3.75 9.75002L12.645 9.75002L9.9225 13.02C9.6574 13.339 9.70106 13.8124 10.02 14.0775C10.3389 14.3426 10.8124 14.299 11.0775 13.98L14.8275 9.48002C14.8527 9.44423 14.8753 9.40663 14.895 9.36752C14.895 9.33002 14.895 9.30752 14.9475 9.27002C14.9815 9.18403 14.9993 9.09249 15 9.00002C14.9993 8.90755 14.9815 8.81601 14.9475 8.73002C14.9475 8.69252 14.9475 8.67002 14.895 8.63252C14.8753 8.59342 14.8527 8.55581 14.8275 8.52002L11.0775 4.02002C10.9347 3.84861 10.7231 3.74966 10.5 3.75002C10.3248 3.74968 10.1549 3.81071 10.02 3.92252C9.86662 4.04968 9.77014 4.23265 9.75185 4.43104C9.73356 4.62944 9.79496 4.82696 9.9225 4.98002L12.645 8.25002L3.75 8.25002C3.33579 8.25002 3 8.58581 3 9.00002C3 9.41423 3.33579 9.75002 3.75 9.75002Z" fill="currentColor"/>
    </symbol>
    <symbol id="arrow-down" viewBox="0 0 20 20">
        <rect opacity="0.01" width="20" height="20" fill="currentColor"/>
        <path d="M5.83334 8.75003C5.83206 8.52853 5.91902 8.31563 6.07501 8.15836C6.23148 8.0006 6.44448 7.91187 6.66667 7.91187C6.88887 7.91187 7.10187 8.0006 7.25834 8.15836L10 10.9167L12.7583 8.2667C13.0834 7.94359 13.6083 7.94359 13.9333 8.2667C14.0911 8.42317 14.1798 8.63617 14.1798 8.85836C14.1798 9.08056 14.0911 9.29356 13.9333 9.45003L10.6 12.6667C10.276 12.9843 9.75738 12.9843 9.43334 12.6667L6.10001 9.33336C5.93685 9.18228 5.84084 8.97227 5.83334 8.75003Z" fill="currentColor"/>
    </symbol>
    <symbol id="user" viewBox="0 0 22 22">
        <rect opacity="0.01" width="22" height="22" />
        <path d="M11 10.0833C13.025 10.0833 14.6667 8.44171 14.6667 6.41667C14.6667 4.39162 13.025 2.75 11 2.75C8.97495 2.75 7.33333 4.39162 7.33333 6.41667C7.33333 8.44171 8.97495 10.0833 11 10.0833Z"/>
        <path d="M16.5 19.25C17.0063 19.25 17.4167 18.8396 17.4167 18.3333C17.4167 14.7895 14.5438 11.9166 11 11.9166C7.45617 11.9166 4.58333 14.7895 4.58333 18.3333C4.58333 18.8396 4.99373 19.25 5.49999 19.25H16.5Z"/>
    </symbol>
    <symbol id="email" viewBox="0 0 22 22">
        <rect opacity="0.01" width="22" height="22" fill="#1A1A1A"/>
        <path fill-rule="evenodd" clip-rule="evenodd" d="M17.4167 3.66663H4.58333C3.06455 3.66663 1.83333 4.89784 1.83333 6.41663V15.5833C1.83333 17.1021 3.06455 18.3333 4.58333 18.3333H17.4167C18.9354 18.3333 20.1667 17.1021 20.1667 15.5833V6.41663C20.1667 4.89784 18.9354 3.66663 17.4167 3.66663ZM17.4167 5.49996L11.4583 9.59746C11.1747 9.76121 10.8253 9.76121 10.5417 9.59746L4.58333 5.49996H17.4167Z" fill="#1A1A1A"/>
    </symbol>
    <symbol id="eye-off" viewBox="0 0 22 22">
        <rect opacity="0.01" width="22" height="22" fill="#1A1A1A"/>
        <circle cx="11" cy="11" r="1.375" fill="#1A1A1A"/>
        <path d="M14.0158 16.6099L12.8333 15.3816L12.7692 15.3174L11.605 14.1533C11.4203 14.1856 11.2333 14.204 11.0458 14.2083C10.187 14.2205 9.35915 13.888 8.74752 13.2849C8.13589 12.6819 7.79159 11.8588 7.79167 10.9999C7.79593 10.8124 7.81431 10.6255 7.84667 10.4408L6.01334 8.60744L4.58334 7.21411C3.54872 8.18896 2.66238 9.31001 1.95251 10.5416C1.78876 10.8252 1.78876 11.1747 1.95251 11.4583C2.53001 12.4574 5.61917 17.4166 11.0183 17.4166H11.2475C12.2628 17.3865 13.2649 17.1786 14.2083 16.8024L14.0158 16.6099Z" fill="#1A1A1A"/>
        <path d="M7.87417 5.28005L10.4408 7.84671C10.6256 7.81435 10.8125 7.79596 11 7.79171C12.7719 7.79171 14.2083 9.22813 14.2083 11C14.2041 11.1876 14.1857 11.3745 14.1533 11.5592L16.61 14.0159L17.38 14.7859C18.4276 13.8136 19.3264 12.6924 20.0475 11.4584C20.2113 11.1748 20.2113 10.8253 20.0475 10.5417C19.4608 9.52421 16.2342 4.41838 10.7525 4.58338C9.73725 4.61349 8.73514 4.82136 7.79167 5.19755L7.87417 5.28005Z" fill="#1A1A1A"/>
        <path d="M18.9842 17.6825L17.7925 16.5L15.9592 14.6667L7.2325 5.93082L5.885 4.58332L4.3175 3.01582C4.08498 2.7833 3.74608 2.69249 3.42845 2.7776C3.11082 2.86271 2.86272 3.1108 2.77761 3.42843C2.69251 3.74606 2.78332 4.08497 3.01584 4.31749L5.06917 6.41665L6.67334 7.97499L13.3742 14.6667L13.4383 14.7308L14.6667 15.9592L15.2075 16.5L17.6825 18.9842C17.8546 19.1577 18.0889 19.2553 18.3333 19.2553C18.5778 19.2553 18.8121 19.1577 18.9842 18.9842C19.1577 18.812 19.2553 18.5777 19.2553 18.3333C19.2553 18.0889 19.1577 17.8546 18.9842 17.6825Z" fill="#1A1A1A"/>
    </symbol>

    <symbol id="logo" viewBox="0 0 125 55">
        <g clip-path="url(#clip0_1_1389)">
            <path fill-rule="evenodd" clip-rule="evenodd" d="M46.729 13.75L46.729 55L29.2056 34.375L11.6823 13.75L46.729 13.75Z" fill="#D2D2D2"/>
            <path fill-rule="evenodd" clip-rule="evenodd" d="M0 41.25L0 0L17.5234 20.625L35.0467 41.25L0 41.25Z" fill="#484848"/>
            <path d="M71.6915 30V15.4545H73.8861V28.1108H80.477V30H71.6915ZM87.0441 30.2202C86.0214 30.2202 85.1289 29.9858 84.3666 29.517C83.6043 29.0483 83.0124 28.3925 82.591 27.5497C82.1696 26.7069 81.9589 25.7221 81.9589 24.5952C81.9589 23.4635 82.1696 22.474 82.591 21.6264C83.0124 20.7789 83.6043 20.1207 84.3666 19.652C85.1289 19.1832 86.0214 18.9489 87.0441 18.9489C88.0669 18.9489 88.9594 19.1832 89.7217 19.652C90.484 20.1207 91.0758 20.7789 91.4972 21.6264C91.9187 22.474 92.1294 23.4635 92.1294 24.5952C92.1294 25.7221 91.9187 26.7069 91.4972 27.5497C91.0758 28.3925 90.484 29.0483 89.7217 29.517C88.9594 29.9858 88.0669 30.2202 87.0441 30.2202ZM87.0512 28.4375C87.7141 28.4375 88.2633 28.2623 88.699 27.9119C89.1346 27.5616 89.4565 27.0952 89.6649 26.5128C89.8779 25.9304 89.9845 25.2888 89.9845 24.5881C89.9845 23.892 89.8779 23.2528 89.6649 22.6705C89.4565 22.0833 89.1346 21.6122 88.699 21.2571C88.2633 20.902 87.7141 20.7244 87.0512 20.7244C86.3836 20.7244 85.8296 20.902 85.3893 21.2571C84.9537 21.6122 84.6294 22.0833 84.4163 22.6705C84.2079 23.2528 84.1038 23.892 84.1038 24.5881C84.1038 25.2888 84.2079 25.9304 84.4163 26.5128C84.6294 27.0952 84.9537 27.5616 85.3893 27.9119C85.8296 28.2623 86.3836 28.4375 87.0512 28.4375ZM98.7125 34.3182C97.846 34.3182 97.1003 34.2045 96.4753 33.9773C95.855 33.75 95.3484 33.4493 94.9554 33.0753C94.5624 32.7012 94.2688 32.2917 94.0747 31.8466L95.9 31.0938C96.0278 31.3021 96.1983 31.5223 96.4114 31.7543C96.6292 31.991 96.9227 32.1922 97.292 32.358C97.6661 32.5237 98.1467 32.6065 98.7338 32.6065C99.5387 32.6065 100.204 32.41 100.73 32.017C101.255 31.6288 101.518 31.0085 101.518 30.1562V28.0114H101.383C101.255 28.2434 101.07 28.5014 100.829 28.7855C100.592 29.0696 100.266 29.3158 99.8489 29.5241C99.4322 29.7325 98.89 29.8366 98.2224 29.8366C97.3607 29.8366 96.5842 29.6354 95.8929 29.233C95.2063 28.8258 94.6618 28.2268 94.2594 27.4361C93.8616 26.6406 93.6628 25.6629 93.6628 24.5028C93.6628 23.3428 93.8593 22.3485 94.2523 21.5199C94.65 20.6913 95.1945 20.0568 95.8858 19.6165C96.5771 19.1714 97.3607 18.9489 98.2366 18.9489C98.9137 18.9489 99.4606 19.0625 99.8773 19.2898C100.294 19.5123 100.618 19.7727 100.85 20.071C101.087 20.3693 101.269 20.6321 101.397 20.8594H101.553V19.0909H103.634V30.2415C103.634 31.179 103.417 31.9484 102.981 32.5497C102.545 33.151 101.956 33.5961 101.212 33.8849C100.474 34.1738 99.6405 34.3182 98.7125 34.3182ZM98.6912 28.0753C99.302 28.0753 99.8181 27.9332 100.239 27.6491C100.666 27.3603 100.988 26.9484 101.205 26.4134C101.428 25.8736 101.539 25.2273 101.539 24.4744C101.539 23.7405 101.43 23.0942 101.212 22.5355C100.995 21.9768 100.675 21.5412 100.254 21.2287C99.8323 20.9115 99.3114 20.7528 98.6912 20.7528C98.052 20.7528 97.5193 20.9186 97.0932 21.25C96.667 21.5767 96.3451 22.0218 96.1273 22.5852C95.9142 23.1487 95.8077 23.7784 95.8077 24.4744C95.8077 25.1894 95.9166 25.8168 96.1344 26.3565C96.3522 26.8963 96.6741 27.3177 97.1003 27.6207C97.5311 27.9238 98.0614 28.0753 98.6912 28.0753ZM110.716 30.2202C109.694 30.2202 108.801 29.9858 108.039 29.517C107.277 29.0483 106.685 28.3925 106.263 27.5497C105.842 26.7069 105.631 25.7221 105.631 24.5952C105.631 23.4635 105.842 22.474 106.263 21.6264C106.685 20.7789 107.277 20.1207 108.039 19.652C108.801 19.1832 109.694 18.9489 110.716 18.9489C111.739 18.9489 112.632 19.1832 113.394 19.652C114.156 20.1207 114.748 20.7789 115.17 21.6264C115.591 22.474 115.802 23.4635 115.802 24.5952C115.802 25.7221 115.591 26.7069 115.17 27.5497C114.748 28.3925 114.156 29.0483 113.394 29.517C112.632 29.9858 111.739 30.2202 110.716 30.2202ZM110.724 28.4375C111.386 28.4375 111.936 28.2623 112.371 27.9119C112.807 27.5616 113.129 27.0952 113.337 26.5128C113.55 25.9304 113.657 25.2888 113.657 24.5881C113.657 23.892 113.55 23.2528 113.337 22.6705C113.129 22.0833 112.807 21.6122 112.371 21.2571C111.936 20.902 111.386 20.7244 110.724 20.7244C110.056 20.7244 109.502 20.902 109.062 21.2571C108.626 21.6122 108.302 22.0833 108.089 22.6705C107.88 23.2528 107.776 23.892 107.776 24.5881C107.776 25.2888 107.88 25.9304 108.089 26.5128C108.302 27.0952 108.626 27.5616 109.062 27.9119C109.502 28.2623 110.056 28.4375 110.724 28.4375Z" fill="currentColor"/>
        </g>
        <defs>
            <clipPath id="clip0_1_1389">
                <rect width="125" height="55" fill="white"/>
            </clipPath>
        </defs>
    </symbol>

    <!-- brands -->
    <symbol id="b-philips" viewBox="0 0 104 20">
        <path fill-rule="evenodd" clip-rule="evenodd" d="M35.2265 0.882043H29.6492V8.13021H23.8408V0.882043H18.2614V19.1192H23.8408V11.9447H29.6492V19.1192H35.2265V0.882043ZM54.6375 15.4558V0.882043H49.0577V19.1192H59.1461L59.9854 15.4558H54.6375ZM39.3538 19.1192H44.932V0.882043H39.3538V19.1192ZM61.9734 19.1192H67.5506V0.882043H61.9734V19.1192ZM95.0596 5.5352C95.0596 4.54421 96.054 4.08507 97.6578 4.08507C99.4152 4.08507 101.327 4.46711 102.624 5.00335L102.168 1.03436C100.715 0.729727 99.4152 0.5 97.0472 0.5C92.5386 0.5 89.4823 2.27483 89.4823 5.9956C89.4823 12.4029 98.1959 11.1073 98.1959 14.0828C98.1959 15.2264 97.3525 15.8353 95.2885 15.8353C93.4579 15.8353 90.6272 15.2264 88.948 14.3874L89.5599 18.5861C91.2401 19.1954 93.5321 19.5 95.3671 19.5C100.027 19.5 103.849 17.9734 103.849 13.3939C103.849 7.29153 95.0596 8.4361 95.0596 5.5352ZM79.3214 14.7694C84.5145 14.7694 87.8009 12.097 87.8009 7.44385C87.8009 2.33124 84.2867 0.5 78.5543 0.5C76.3393 0.5 73.6631 0.652316 71.7527 0.882043V19.1192H77.3337V14.7694H79.3214ZM82.2975 7.52001C82.2975 9.88529 81.1542 11.4877 78.2493 11.4877H77.3337V3.95375C77.6576 3.93494 77.9629 3.93494 78.2493 3.93494C80.9993 3.93494 82.2975 5.23088 82.2975 7.52001ZM7.56489 14.7694C12.7605 14.7694 16.0457 12.097 16.0457 7.44385C16.0457 2.33124 12.5302 0.5 6.80067 0.5C4.58372 0.5 1.90913 0.652316 0 0.882043V19.1192H5.57692V14.7694H7.56489ZM10.546 7.52001C10.546 9.88529 9.39894 11.4877 6.49536 11.4877H5.57692V3.95375C5.90359 3.93494 6.2089 3.93494 6.49536 3.93494C9.24409 3.93494 10.546 5.23088 10.546 7.52001Z" fill="#A4A4A4"/>
    </symbol>
    <symbol id="b-logitech" viewBox="0 0 126 38">
        <path fill-rule="evenodd" clip-rule="evenodd" d="M62.5555 3.07022H58.0078V8.6318H55.5575V12.645H58.0078V26.6924H62.5555V12.645H65.0429V8.6318H62.5555V3.07022ZM51.2953 0.5C49.625 0.5 48.3105 1.80277 48.3105 3.49277C48.3105 5.14674 49.625 6.45022 51.2953 6.45022C53.0354 6.45022 54.3506 5.14674 54.3506 3.49277C54.3506 1.80277 53.0354 0.5 51.2953 0.5ZM123.583 8.21067C122.803 8.21067 122.198 7.6119 122.198 6.83674C122.198 6.09742 122.803 5.49865 123.583 5.49865C124.33 5.49865 124.933 6.09742 124.933 6.83674C124.933 7.6119 124.33 8.21067 123.583 8.21067ZM123.583 5.28853C122.696 5.28853 121.986 5.99236 121.986 6.83674C121.986 7.71696 122.696 8.4215 123.583 8.4215C124.436 8.4215 125.147 7.71696 125.147 6.83674C125.147 5.99236 124.436 5.28853 123.583 5.28853ZM70.3342 15.7795C70.9384 13.3857 72.7859 12.0476 75.1659 12.0476C77.5465 12.0476 79.3214 13.3497 79.8907 15.7795H70.3342ZM75.2717 8.06888C69.8026 8.06888 65.6456 12.224 65.6456 17.751C65.6456 23.2073 69.4475 27.2209 75.3432 27.2209C78.6113 27.2209 81.5248 26.0244 83.6562 23.7703L80.601 20.7789C79.1087 22.1874 77.5102 23.2073 75.4497 23.2073C72.9639 23.2073 71.0807 21.7988 70.4417 19.441H84.6142V18.3498C84.6142 12.188 80.779 8.06888 75.2717 8.06888ZM115.519 8.06888C113.281 8.06888 111.364 8.91308 110.013 10.3576V0.993703H105.466V26.6924H110.013V16.8706C110.013 14.2659 111.684 12.4695 114.454 12.4695C117.047 12.4695 118.468 14.0535 118.468 16.8706V26.6924H123.015V16.061C123.015 11.0623 119.852 8.06888 115.519 8.06888ZM123.228 6.80213V6.2378H123.583C123.868 6.2378 123.975 6.34445 123.975 6.52067C123.975 6.69636 123.868 6.80213 123.583 6.80213H123.228ZM124.187 6.52067C124.187 6.16876 123.938 6.02697 123.583 6.02697H123.015V7.64633H123.228V7.01296H123.583L123.975 7.64633H124.222L123.797 6.97853C124.046 6.9418 124.187 6.80213 124.187 6.52067ZM95.9106 12.4349C97.8287 12.4349 99.3923 13.4201 100.6 14.7943L103.761 11.6957C101.986 9.47741 99.1787 8.06888 95.9827 8.06888C90.4771 8.06888 86.1421 12.224 86.1421 17.6443C86.1421 23.0662 90.4771 27.2209 95.9827 27.2209C99.1787 27.2209 101.986 25.812 103.761 23.596L100.6 20.4974C99.4277 21.835 97.8287 22.8554 95.8758 22.8554C92.9621 22.8554 90.724 20.6027 90.724 17.6443C90.724 14.6869 92.9621 12.4349 95.9106 12.4349ZM49.057 26.6924H53.6048V8.6318H49.057V26.6924ZM16.163 22.8554C13.2495 22.8554 10.9399 20.5681 10.9399 17.6099C10.9399 14.6869 13.2495 12.4349 16.163 12.4349C19.1109 12.4349 21.4203 14.6869 21.4203 17.6443C21.4203 20.6027 19.1109 22.8554 16.163 22.8554ZM16.163 8.06888C10.6561 8.06888 6.32256 12.224 6.32256 17.6443C6.32256 23.0662 10.6561 27.2209 16.163 27.2209C21.6687 27.2209 26.002 23.0662 26.002 17.6443C26.002 12.224 21.6687 8.06888 16.163 8.06888ZM0 26.6924H4.54767V0.993703H0V26.6924ZM37.4053 22.8554C34.4932 22.8554 32.1838 20.5681 32.1838 17.6099C32.1838 14.6869 34.4932 12.4349 37.4053 12.4349C40.354 12.4349 42.6633 14.6869 42.6633 17.6443C42.6633 20.6027 40.354 22.8554 37.4053 22.8554ZM47.0679 12.224V8.6318H40.6727C39.6436 8.2813 38.5427 8.06888 37.4053 8.06888C31.8998 8.06888 27.5665 12.224 27.5665 17.6443C27.5665 23.0662 31.8998 27.2209 37.4053 27.2209C42.911 27.2209 47.2459 23.0662 47.2459 17.6443C47.2459 15.814 46.7476 14.0191 45.7534 12.681L47.0679 12.224ZM37.4053 33.1001C34.4932 33.1001 32.1838 30.8475 32.1838 27.9254H27.5665C27.5665 33.3471 31.8998 37.5 37.4053 37.5C42.911 37.5 47.2459 33.3471 47.2459 27.9254H42.627C42.627 30.8475 40.3174 33.1001 37.4053 33.1001Z" fill="#A4A4A4"/>
    </symbol>
    <symbol id="b-linkedin" viewBox="0 0 142 37">
        <path fill-rule="evenodd" clip-rule="evenodd" d="M139.132 0.248779H108.514C107.051 0.248779 105.862 1.40589 105.862 2.83187V33.5111C105.862 34.9385 107.051 36.0971 108.514 36.0971H139.132C140.598 36.0971 141.792 34.9385 141.792 33.5111V2.83187C141.792 1.40589 140.598 0.248779 139.132 0.248779ZM113.855 5.18424C115.559 5.18424 116.943 6.56565 116.943 8.26622C116.943 9.96828 115.559 11.3497 113.855 11.3497C112.147 11.3497 110.764 9.96828 110.764 8.26622C110.764 6.56565 112.147 5.18424 113.855 5.18424ZM116.518 30.7963H111.189V13.6883H116.518V30.7963ZM119.861 13.6883H124.972V16.026H125.043C125.755 14.6809 127.493 13.2631 130.086 13.2631C135.482 13.2631 136.478 16.8067 136.478 21.4125V30.7964H131.153V22.4767C131.153 20.4929 131.116 17.9409 128.384 17.9409C125.611 17.9409 125.185 20.102 125.185 22.3333V30.7964H119.861V13.6883ZM20.916 5.17657C22.6218 5.17657 24.0064 6.55799 24.0064 8.25855C24.0064 9.96211 22.6218 11.3395 20.916 11.3395C19.2121 11.3395 17.8276 9.96211 17.8276 8.25855C17.8276 6.55799 19.2121 5.17657 20.916 5.17657ZM23.5797 30.7887V13.6807H18.2522V30.7887H23.5797ZM0 5.55066V30.7956H15.8042V25.6929H5.54277V5.55066H0ZM51.1732 5.5489H45.848V30.7955H51.1732V22.3385H51.2426L56.8947 30.7955H63.5889L56.7482 21.5941L63.7349 13.6731H57.206L51.1732 20.6369V5.5489ZM26.526 13.6831H31.6396V16.0217H31.7109C32.4205 14.6752 34.1611 13.2584 36.7532 13.2584C42.152 13.2584 43.146 16.8015 43.146 21.4068V30.7886H37.8188V22.4705C37.8188 20.4856 37.7822 17.9354 35.0473 17.9354C32.2781 17.9354 31.8532 20.0973 31.8532 22.3286V30.7886H26.526V13.6831ZM72.1763 31.2301C74.9481 31.2301 77.752 29.9889 79.4569 27.827L75.7285 25.0985C74.8403 26.3032 73.6693 27.1895 71.9285 27.1895C69.8684 27.1895 68.3389 25.8785 67.916 23.8585H80.2743V22.1931C80.2743 16.7017 77.1522 13.1587 72.1763 13.1587C66.8506 13.1587 62.5888 16.7017 62.5888 22.1931C62.5888 27.6851 66.8506 31.2301 72.1763 31.2301ZM71.6783 16.9855C73.598 16.9855 74.9827 18.474 74.9481 20.2458H67.916C68.0565 18.5801 69.3359 16.9855 71.6783 16.9855ZM100.535 30.7862H95.633V28.5175H95.5636C94.7442 29.7573 92.6863 31.2111 90.2706 31.2111C85.1552 31.2111 81.7821 27.5275 81.7821 22.318C81.7821 17.5339 84.765 13.1402 89.6655 13.1402C91.8694 13.1402 93.9286 13.7422 95.1362 15.4076H95.2056V5.54877H100.535V30.7862ZM91.3689 17.8177C88.7074 17.8177 87.1096 19.5907 87.1096 22.1753C87.1096 24.7641 88.7074 26.5334 91.3689 26.5334C94.0341 26.5334 95.633 24.7641 95.633 22.1753C95.633 19.5907 94.0341 17.8177 91.3689 17.8177Z" fill="#A4A4A4"/>
    </symbol>
    <symbol id="b-google" viewBox="0 0 125 40">
        <path fill-rule="evenodd" clip-rule="evenodd" d="M30.8302 16.4674C30.8296 16.4962 30.829 16.5321 30.8282 16.5548H30.8252C30.8264 16.5887 30.8273 16.5797 30.8282 16.5548H30.8318C30.8318 16.3781 30.8312 16.4079 30.8302 16.4674ZM15.8724 31.0742C15.8465 31.0733 15.8373 31.0725 15.8724 31.0713C15.903 31.0704 15.9666 31.0693 16.0822 31.0681C20.3737 31.0235 24.0422 29.6591 26.6684 27.153C29.2961 24.6449 30.8229 21.051 30.8229 16.5548H30.8252C30.824 16.5246 30.8229 16.4609 30.8217 16.3449L30.7973 14.1501H28.5625H15.9972V18.5739H26.1593C25.8175 20.8542 24.8842 22.6835 23.4965 24.0078C21.7186 25.7046 19.1373 26.6293 16.0465 26.6614C15.8424 26.6636 15.8776 26.6627 15.9482 26.6609H15.9482H15.9482C16.0492 26.6583 16.2224 26.6539 15.8724 26.6539C12.7266 26.6539 9.89567 25.4154 7.85262 23.4133C5.80065 21.4026 4.5363 18.6162 4.5363 15.5336C4.5363 12.4522 5.80035 9.66899 7.85113 7.66058C9.89389 5.66029 12.7255 4.42377 15.8724 4.42377C17.3561 4.42377 18.7711 4.69884 20.0672 5.19942C21.4211 5.72203 22.6429 6.48406 23.6757 7.43043L26.7766 4.21623C25.319 2.88087 23.6109 1.81159 21.7328 1.08638C19.9169 0.385507 17.9395 0 15.8724 0C11.4801 0 7.51558 1.73826 4.64419 4.55015C1.77101 7.36348 -9.15527e-05 11.2472 -9.15527e-05 15.5336C-9.15527e-05 19.82 1.77131 23.7072 4.64537 26.5238C7.51647 29.3374 11.4804 31.0777 15.8724 31.0777C16.061 31.0777 16.0294 31.0772 15.966 31.0761C15.935 31.0756 15.8965 31.075 15.8724 31.0742ZM42.7788 15.1068C44.4075 15.1068 45.8805 15.7697 46.9451 16.8413C48.0112 17.9146 48.6707 19.4051 48.6707 21.0584C48.6707 22.7117 48.0112 24.2024 46.9451 25.2755C45.8805 26.3471 44.4075 27.01 42.7788 27.01C41.1497 27.01 39.6767 26.3471 38.6121 25.2755C37.546 24.2024 36.8865 22.7117 36.8865 21.0584C36.8865 19.4051 37.546 17.9146 38.6121 16.8413C39.6767 15.7697 41.1497 15.1068 42.7788 15.1068ZM50.0599 14.0453C48.1949 12.2433 45.6204 11.1285 42.7788 11.1285C39.9371 11.1285 37.3623 12.2433 35.4973 14.0453C33.6338 15.8459 32.4812 18.3259 32.4812 21.0584C32.4812 23.7908 33.6338 26.2708 35.4973 28.0714C37.3623 29.8737 39.9371 30.9882 42.7788 30.9882C45.6204 30.9882 48.1949 29.8737 50.0599 28.0714C51.9238 26.2708 53.0764 23.7908 53.0764 21.0584C53.0764 18.3259 51.9238 15.8459 50.0599 14.0453ZM69.0927 16.8413C68.0281 15.7697 66.5551 15.1068 64.9263 15.1068C63.2973 15.1068 61.8243 15.7697 60.7597 16.8413C59.6939 17.9146 59.0344 19.4051 59.0344 21.0584C59.0344 22.7117 59.6939 24.2024 60.7597 25.2755C61.8243 26.3471 63.2973 27.01 64.9263 27.01C66.5551 27.01 68.0281 26.3471 69.0927 25.2755C70.1588 24.2024 70.8183 22.7117 70.8183 21.0584C70.8183 19.4051 70.1588 17.9146 69.0927 16.8413ZM64.9263 11.1285C67.768 11.1285 70.3425 12.2433 72.2078 14.0453C74.0713 15.8459 75.2239 18.3259 75.2239 21.0584C75.2239 23.7908 74.0713 26.2708 72.2078 28.0714C70.3425 29.8737 67.768 30.9882 64.9263 30.9882C62.0847 30.9882 59.5102 29.8737 57.6449 28.0714C55.7813 26.2708 54.6284 23.7908 54.6284 21.0584C54.6284 18.3259 55.7813 15.8459 57.6449 14.0453C59.5102 12.2433 62.0847 11.1285 64.9263 11.1285ZM86.8977 15.1068C88.4492 15.1068 89.8523 15.7697 90.8664 16.8413C91.882 17.9146 92.51 19.4051 92.51 21.0584C92.51 22.7117 91.882 24.2024 90.8664 25.2755C89.8523 26.3471 88.4492 27.1193 86.8977 27.1193C83.595 27.1193 81.2854 24.3995 81.2854 21.0584C81.2854 19.4051 81.9134 17.9146 82.929 16.8413C83.9431 15.7697 85.3459 15.1068 86.8977 15.1068ZM92.0838 13.4169C90.5728 11.9879 88.8914 11.1285 86.119 11.1285C81.4762 11.1285 76.8022 15.5393 76.8022 21.0584C76.8022 23.7908 77.8451 26.2708 79.5312 28.0714C81.2188 29.8737 83.979 30.9882 86.5499 30.9882C88.81 30.9882 90.5496 30.1271 92.0838 28.6949V30.8688C92.0838 34.0897 89.372 36.0445 87.2104 36.0445C84.1592 36.0445 82.5277 34.8291 81.4346 32.4703L77.5735 34.1674C78.4937 36.1532 79.835 37.563 81.4072 38.5068C83.1745 39.5677 85.1964 39.9462 87.2104 39.9462C89.4157 39.9462 91.6433 39.0387 93.3015 37.6007C95.0229 36.1079 96.2941 33.2462 96.2941 30.6077V11.6885H92.0838V13.4169ZM99.0162 30.4193H103.364V1.27838H99.0162V30.4193ZM120.458 24.3786C118.172 28.0931 112.142 28.0493 110.43 24.0731C113.065 23.0385 115.692 21.9916 118.319 20.9447C120.272 20.1664 122.225 19.388 124.181 18.6148C122.663 14.8012 120.587 12.607 118.03 11.7012C114.092 10.3064 110.275 11.6067 107.8 14.1641C104.766 17.2992 103.83 23.9122 108.207 28.2221C109.999 29.9858 112.396 31.0745 115.375 31.0713C118.721 31.0534 121.792 29.6424 123.9 26.629L120.458 24.3786ZM118.997 17.0754L109.738 20.7119C109.602 18.7995 110.656 17.1073 111.86 16.116C114.989 14.0339 117.363 15.0261 118.997 17.0754Z" fill="#A4A4A4"/>
    </symbol>
    <symbol id="b-facebook" viewBox="0 0 142 29">
        <path fill-rule="evenodd" clip-rule="evenodd" d="M13.2841 4.79932V0.503362H9.59828C9.59828 0.503362 7.06448 0.350041 5.14481 2.11431C3.22515 3.87886 3.68581 6.0267 3.68581 6.0267V9.93936H-5.81741e-05V14.5425H3.53235V27.6604H8.75368V14.602H12.7467L13.2841 9.93936H8.75368V6.56387C8.75368 4.49241 10.9038 4.79932 10.9038 4.79932H13.2841ZM22.2116 24.0933C24.079 24.0933 25.5929 22.4204 25.5929 20.6409V17.2656C25.5929 15.4861 24.079 13.8135 22.2116 13.8135C20.3439 13.8135 18.8299 15.4861 18.8299 17.2656V20.6409C18.8299 22.4204 20.3439 24.0933 22.2116 24.0933ZM25.874 12.3569V10.0161H30.9068V27.6604H25.8773L25.9119 25.3845C24.5769 27.1654 22.6984 28.274 20.6173 28.274C16.5674 28.274 13.2842 24.6685 13.2842 18.8956C13.2842 13.0847 16.5674 9.51724 20.6173 9.51724C22.6788 9.51724 24.5418 10.6054 25.874 12.3569ZM72.2721 17.1506C72.2721 15.3711 73.786 13.6982 75.6534 13.6982C77.5211 13.6982 79.0351 15.3711 79.0351 17.1506V20.5259C79.0351 22.3054 77.5211 23.978 75.6534 23.978C73.786 23.978 72.2721 22.3054 72.2721 20.5259V17.1506ZM71.991 27.7754V25.4346C73.3232 27.1861 75.1863 28.2743 77.2477 28.2743C81.2976 28.2743 84.5808 24.7068 84.5808 18.8956C84.5808 13.123 81.2976 9.51724 77.2477 9.51724C75.1667 9.51724 73.2881 10.6261 71.9532 12.4067L71.9877 0.754058L66.7574 1.34206V27.695L71.991 27.7754ZM38.2397 19.0084C38.2397 24.2251 42.2712 23.9948 42.2712 23.9948C44.9971 24.0332 45.957 23.0744 45.957 23.0744L47.2239 26.8718C45.0354 28.4827 38.4318 28.751 35.4755 26.0277C32.9174 23.6714 32.918 19.8525 32.9645 18.8657C32.918 17.8789 32.9174 14.0603 35.4755 11.7037C38.4318 8.98032 45.0354 9.24891 47.2239 10.8599L45.957 14.6573C45.957 14.6573 44.9971 13.6982 42.2712 13.7368C42.2712 13.7368 38.2397 13.5065 38.2397 18.7232V19.0084ZM53.2517 17.1888C53.2517 17.1888 52.9828 13.2764 56.5152 13.2764C60.0474 13.2764 59.7785 17.1888 59.7785 17.1888H53.2517ZM64.5778 20.756C64.5778 20.756 66.6893 9.70903 56.592 9.64922C46.4943 9.58915 47.9533 19.6436 47.9533 19.6436C48.1838 25.7424 50.9864 27.507 55.7857 28.0822C60.5848 28.6577 64.2323 26.8165 64.2323 26.8165L63.1188 23.2493C63.1188 23.2493 59.2411 24.4384 56.1697 24.1698C53.0982 23.9015 53.3284 20.756 53.3284 20.756H64.5778ZM94.9405 24C96.8569 24 98.4103 22.3271 98.4103 20.5476V17.1723C98.4103 15.3928 96.8569 13.7202 94.9405 13.7202C93.0243 13.7202 91.4707 15.3928 91.4707 17.1723V20.5476C91.4707 22.3271 93.0243 24 94.9405 24ZM86.2001 19.016C86.2001 13.7202 88.4122 9.75804 94.9854 9.75804C101.261 9.75804 103.771 13.9031 103.771 19.016C103.771 25.0172 99.8375 28.2742 94.9854 28.2742C89.0506 28.2742 86.2001 24.6345 86.2001 19.016ZM117.811 20.5476C117.811 22.3271 116.257 24 114.341 24C112.425 24 110.871 22.3271 110.871 20.5476V17.1723C110.871 15.3928 112.425 13.7202 114.341 13.7202C116.257 13.7202 117.811 15.3928 117.811 17.1723V20.5476ZM114.386 9.75804C107.812 9.75804 105.6 13.7202 105.6 19.016C105.6 24.6345 108.451 28.2742 114.386 28.2742C119.238 28.2742 123.171 25.0172 123.171 19.016C123.171 13.9031 120.661 9.75804 114.386 9.75804ZM135.849 18.854L141.593 27.7374H136.147L130.361 18.7002V27.7374H125.086V1.21459L130.361 0.662202V17.9227L135.722 9.97043H141.338L135.849 18.854Z" fill="#A4A4A4"/>
    </symbol>
    <symbol id="b-amazon" viewBox="0 0 161 33">
        <path fill-rule="evenodd" clip-rule="evenodd" d="M11.9924 18.8952C12.2327 19.025 12.5407 19.0122 12.7544 18.8198L12.7621 18.8268C13.4055 18.2508 14.5765 17.2283 15.2349 16.6732C15.4976 16.4577 15.4511 16.1068 15.2456 15.8118C15.1827 15.7246 15.1194 15.639 15.0566 15.554C14.5293 14.8412 14.0285 14.1643 14.0285 12.8067V7.75479C14.0285 7.5809 14.0295 7.40818 14.0305 7.23678C14.0416 5.29776 14.0518 3.52876 12.6106 2.17428C11.3734 0.98072 9.32197 0.55957 7.75301 0.55957C4.68421 0.55957 1.25949 1.71157 0.541401 5.52472C0.464946 5.92969 0.758693 6.14265 1.02281 6.20224L4.1483 6.54247C4.44095 6.52775 4.65275 6.23865 4.70872 5.94661C4.97686 4.63313 6.071 3.99939 7.30086 3.99939C7.96408 3.99939 8.71875 4.24509 9.1109 4.84169C9.51617 5.43892 9.50976 6.23324 9.50401 6.94719C9.50334 7.03041 9.50268 7.11254 9.50268 7.19313V7.61428C9.21251 7.64699 8.90853 7.67799 8.59548 7.70992C6.89101 7.88376 4.91748 8.08503 3.43899 8.73759C1.41788 9.6152 0 11.405 0 14.0375C0 17.4067 2.11146 19.0912 4.82688 19.0912C7.11979 19.0912 8.37379 18.5472 10.1436 16.7343C10.2332 16.8646 10.3136 16.9848 10.3893 17.0979C10.8085 17.7241 11.0849 18.1369 11.9924 18.8952ZM9.5028 11.0793C9.50274 11.0245 9.50268 10.9692 9.50268 10.9136V10.2118C7.17027 10.2118 4.70616 10.7142 4.70616 13.4758C4.70616 14.8794 5.43047 15.8272 6.66728 15.8272C7.57229 15.8272 8.38696 15.266 8.89946 14.3534C9.50514 13.2796 9.50407 12.2699 9.5028 11.0793ZM55.0308 18.8198C54.8172 19.0122 54.5095 19.025 54.2688 18.8952C53.3609 18.1364 53.0846 17.7234 52.6651 17.0964L52.6648 17.0961C52.5895 16.9835 52.5095 16.864 52.4204 16.7343C50.6499 18.5472 49.3959 19.0912 47.1033 19.0912C44.3883 19.0912 42.2761 17.4067 42.2761 14.0375C42.2761 11.405 43.694 9.6152 45.7154 8.73759C47.1937 8.08502 49.1675 7.88374 50.8722 7.7099C51.1853 7.67798 51.4893 7.64698 51.7795 7.61428V7.19313C51.7795 7.11304 51.7801 7.03144 51.7808 6.94875V6.94836C51.7865 6.23411 51.7928 5.43925 51.3873 4.84169C50.9948 4.24509 50.2409 3.99939 49.5769 3.99939C48.3471 3.99939 47.2537 4.63313 46.9848 5.94661C46.9292 6.23865 46.717 6.52775 46.4247 6.54247L43.2989 6.20224C43.0351 6.14265 42.7418 5.92969 42.8178 5.52472C43.5363 1.71157 46.9607 0.55957 50.0298 0.55957C51.5984 0.55957 53.6499 0.98072 54.8867 2.17428C56.328 3.52854 56.3178 5.29718 56.3066 7.23582C56.3056 7.40754 56.3046 7.58058 56.3046 7.75479V12.8067C56.3046 14.1633 56.8052 14.8403 57.332 15.5525L57.3321 15.5527C57.3953 15.6382 57.4589 15.7241 57.522 15.8118C57.7279 16.1068 57.7744 16.4577 57.5114 16.6732C56.8526 17.2283 55.6823 18.2508 55.0381 18.8268L55.0308 18.8198ZM51.7795 10.9136L51.7796 11.0775C51.7808 12.2689 51.7819 13.279 51.1759 14.3534C50.663 15.266 49.8487 15.8272 48.9434 15.8272C47.7065 15.8272 46.9826 14.8794 46.9826 13.4758C46.9826 10.7142 49.4463 10.2118 51.7795 10.2118V10.9136ZM139.785 18.2673C139.785 18.5932 140.052 18.8555 140.387 18.8658H141.797C142.12 18.8448 142.376 18.587 142.376 18.2681L142.377 8.67506C142.377 7.20417 142.527 5.76821 143.31 4.61254C143.919 3.70219 144.946 2.92169 145.961 2.86467C146.94 2.91654 147.874 3.56978 148.395 4.57723C148.846 5.453 148.906 6.60867 148.906 7.58927L148.913 18.2673C148.913 18.5932 149.181 18.8555 149.515 18.8658H150.925C151.22 18.8463 151.458 18.6307 151.499 18.3549V9.27019L151.498 9.10436C151.497 7.50325 151.497 6.24588 152.341 4.8575C153.009 3.74228 154.042 2.92095 155.168 2.86467C156.176 2.9158 157.113 3.60619 157.606 4.71736C158.039 5.69527 158.034 6.81519 158.028 7.8979V7.89926V7.90061V7.90195V7.90328C158.028 8.02092 158.027 8.13812 158.027 8.25465V18.349C158.068 18.6366 158.318 18.8562 158.623 18.8658H160.04C160.364 18.8448 160.619 18.587 160.619 18.2681L160.619 8.25465L160.619 8.07216V8.072C160.62 6.46523 160.622 4.59344 159.897 3.17658C159.114 1.6358 157.609 0.62026 156.044 0.62026L155.915 0.622099L155.799 0.62026C153.586 0.62026 151.906 2.20886 151.015 4.44628C150.444 2.18017 148.905 0.62026 146.802 0.62026L146.683 0.622099L146.559 0.62026C144.576 0.62026 143.008 2.12683 142.166 4.04978V1.62293C142.14 1.31433 141.872 1.07488 141.546 1.07488L140.363 1.07525C140.055 1.09511 139.808 1.32904 139.785 1.62256V18.2673ZM18.3374 18.8614H21.562C21.9059 18.8614 22.1846 18.5947 22.1843 18.2622L22.1854 9.44086L22.1851 9.23159C22.182 7.3277 22.1779 4.85309 24.4131 4.85309C26.4689 4.85309 26.4343 7.05891 26.4061 8.85296V8.85302V8.85308V8.85313V8.85318V8.85324V8.85328V8.85333V8.85338C26.403 9.05569 26.3999 9.25277 26.3999 9.44086L26.4032 18.2637C26.4032 18.5826 26.6585 18.8404 26.9822 18.8614H30.2032C30.5467 18.8614 30.8255 18.5947 30.8255 18.2622V9.44086C30.8255 9.3697 30.8253 9.29597 30.8251 9.2201C30.8229 8.2876 30.82 7.03132 31.1262 6.2541C31.4572 5.41327 32.2704 4.88803 33.0529 4.88803C33.9861 4.88803 34.7085 5.20325 34.9492 6.32398C35.071 6.86158 35.055 8.10796 35.0444 8.93623L35.0443 8.93695C35.0418 9.13353 35.0396 9.30653 35.0396 9.44086L35.0403 18.2637C35.0403 18.5826 35.2957 18.8404 35.6194 18.8614H38.8407C39.1839 18.8614 39.4626 18.5947 39.4626 18.2622L39.4652 7.75994C39.4652 7.50225 39.4696 7.23946 39.474 6.97419C39.5002 5.40079 39.5279 3.7403 38.652 2.54173C37.7488 1.28086 36.2738 0.720674 34.9192 0.720674C33.0225 0.720674 31.2465 1.70127 30.464 3.8026C29.5608 1.70127 28.2962 0.720674 26.2795 0.720674C24.2928 0.720674 22.8178 1.70127 22.035 3.8026H21.9746V1.62955C21.9549 1.3261 21.7025 1.08702 21.3883 1.07083L18.3849 1.07157C18.0411 1.07157 17.7627 1.33787 17.7627 1.67074L17.7605 18.3133C17.785 18.609 18.0305 18.8411 18.3374 18.8614ZM60.2297 4.00821V1.63028C60.2312 1.26835 60.5026 1.02706 60.8293 1.0278L71.4298 1.0267C71.7685 1.0267 72.0407 1.2746 72.0414 1.62734L72.0407 3.66688C72.0381 4.00895 71.7517 4.45548 71.2425 5.16389L65.7516 13.0466C67.7899 12.9987 69.946 13.3051 71.7981 14.3519C72.2155 14.5877 72.3275 14.9375 72.3604 15.2803V17.8175C72.3604 18.1673 71.9799 18.5719 71.5801 18.3615C68.3171 16.6431 63.9873 16.4547 60.3797 18.3821C60.011 18.5796 59.625 18.1809 59.625 17.8311V15.419C59.625 15.0331 59.6324 14.3729 60.0194 13.7844L66.3812 4.60775L60.8421 4.60702C60.5037 4.60702 60.2319 4.36426 60.2297 4.00821ZM60.103 22.12C62.0595 21.8847 66.3892 21.364 67.1626 22.3593C67.9368 23.3557 66.3034 27.4587 65.5721 29.2957L65.5706 29.2996C65.3493 29.855 65.8241 30.079 66.3238 29.6586C69.5718 26.9268 70.411 21.2025 69.7456 20.3757C69.0856 19.5569 63.4075 18.85 59.9422 21.2974C59.4092 21.6737 59.501 22.1927 60.0922 22.1213L60.103 22.12ZM42.2541 32.1322C49.8118 32.1322 58.5891 29.7428 64.6429 25.2507C65.6448 24.5073 64.7866 23.3921 63.7631 23.8291C56.9762 26.7234 49.6 28.1237 42.8899 28.1237C32.9428 28.1237 23.3121 25.3794 15.5243 20.8226C14.8432 20.4238 14.3376 21.1271 14.9042 21.6413C22.1232 28.1954 31.6613 32.1322 42.2541 32.1322ZM81.1966 4.11746C78.8181 4.11746 78.6677 7.37447 78.6677 9.40555L78.6677 9.47619C78.6674 11.5358 78.6667 15.7798 81.1666 15.7798C83.6654 15.7798 83.7854 12.2775 83.7854 10.1412C83.7854 8.74054 83.7254 7.05925 83.304 5.72849C82.9422 4.57281 82.2197 4.11746 81.1966 4.11746ZM81.1666 0.720674C85.9532 0.720674 88.5417 4.85309 88.5417 10.1062C88.5417 15.1839 85.6825 19.2119 81.1666 19.2119C76.4703 19.2119 73.9114 15.0791 73.9114 9.93116C73.9114 4.74789 76.5003 0.720674 81.1666 0.720674ZM91.5362 18.8614H94.7491C95.0926 18.8614 95.3714 18.5947 95.3772 18.2622V9.30072C95.3772 8.17998 95.438 7.16444 95.8894 6.1489C96.2501 5.34339 96.9725 4.81814 97.7554 4.81814C99.8101 4.81814 99.7905 7.08225 99.775 8.8628L99.775 8.86526C99.7737 9.01435 99.7725 9.16004 99.7725 9.30072V18.3369C99.8076 18.6215 100.048 18.8419 100.347 18.8614H103.58C103.898 18.8614 104.161 18.6322 104.198 18.3369V7.86476C104.198 6.2541 104.198 4.01263 103.355 2.68187C102.452 1.24591 101.036 0.720674 99.5918 0.720674C97.364 0.720674 96.1001 1.8061 95.1969 4.08251H95.1362V1.53686C95.0769 1.27865 94.8446 1.08518 94.5633 1.07083L91.5717 1.07157C91.2469 1.07157 90.9795 1.31065 90.9524 1.61483L90.9575 18.2637C90.9575 18.5826 91.2132 18.8404 91.5362 18.8614ZM106.219 17.5409C106.219 16.7034 106.93 16.0244 107.807 16.0244C108.684 16.0244 109.394 16.7034 109.394 17.5409C109.394 18.3781 108.684 19.0567 107.807 19.0567C106.93 19.0567 106.219 18.3781 106.219 17.5409ZM131.006 16.9373C132.511 16.888 133.699 15.9505 134.402 14.3832C135.033 12.9826 135.154 11.3715 135.154 9.83074C135.154 8.14945 134.973 6.39865 134.191 4.9627C133.49 3.7066 132.281 2.91139 131.001 2.86357C129.575 2.91617 128.305 3.885 127.661 5.38274C127.09 6.67856 126.909 8.39479 126.909 9.83074C126.909 11.4414 127.12 13.2974 127.782 14.6984C128.425 16.0255 129.666 16.8899 131.006 16.9373ZM130.669 19.2163C126.093 19.2163 124.046 14.5233 124.046 9.83074C124.046 4.89244 126.455 0.62026 131.06 0.62026L131.179 0.621363L131.304 0.62026C135.789 0.62026 138.017 5.17272 138.017 9.86532C138.017 14.8386 135.548 19.2163 130.912 19.2163L130.794 19.2148L130.669 19.2163ZM119.95 13.0021C119.502 15.1479 118.424 16.8031 116.37 16.8678C113.279 16.7652 112.545 12.6313 112.545 9.79543C112.545 6.85769 113.425 3.03277 116.516 2.93346C118.456 2.99782 119.621 4.61879 119.963 6.65759C120.008 6.94449 120.204 7.20306 120.499 7.24536L121.923 7.26228C122.22 7.22771 122.473 6.99047 122.473 6.71644C121.984 3.0644 119.733 0.62026 116.579 0.62026L116.455 0.621363L116.335 0.62026C111.789 0.62026 109.802 5.3478 109.802 9.97051C109.802 14.6285 111.759 19.2163 116.305 19.2163L116.423 19.2148L116.549 19.2163C119.672 19.2163 121.863 16.7365 122.49 13.0867C122.514 12.7861 122.22 12.5397 121.9 12.5228L120.541 12.5287C120.241 12.5287 120.037 12.7347 119.95 13.0021Z" fill="#A4A4A4"/>
    </symbol>
</svg>
